<svg xmlns="http://www.w3.org/2000/svg" width="1200" height="630" viewBox="0 0 1200 630">
  <defs>
    <linearGradient id="bg" x1="0" y1="0" x2="1" y2="1">
      <stop offset="0%" stop-color="#10102a"/>
      <stop offset="50%" stop-color="#24185f"/>
      <stop offset="100%" stop-color="#0e3b35"/>
    </linearGradient>
    <linearGradient id="brand" x1="0" y1="0" x2="1" y2="1">
      <stop offset="0%" stop-color="#6c47ff"/>
      <stop offset="55%" stop-color="#4a90e2"/>
      <stop offset="100%" stop-color="#1db884"/>
    </linearGradient>
    <linearGradient id="accent" x1="0" y1="0" x2="1" y2="0">
      <stop offset="0%" stop-color="#8b6fff"/>
      <stop offset="100%" stop-color="#2dd99b"/>
    </linearGradient>
    <filter id="shadow" x="-20%" y="-20%" width="140%" height="140%">
      <feDropShadow dx="0" dy="22" stdDeviation="24" flood-color="#020617" flood-opacity="0.34"/>
    </filter>
  </defs>

  <rect width="1200" height="630" fill="url(#bg)"/>
  <circle cx="1040" cy="118" r="250" fill="#8b6fff" opacity="0.18"/>
  <circle cx="170" cy="540" r="260" fill="#1db884" opacity="0.14"/>
  <path d="M0 520 C220 430 380 610 610 505 C820 410 930 465 1200 360 L1200 630 L0 630 Z" fill="#ffffff" opacity="0.06"/>

  <g filter="url(#shadow)">
    <rect x="72" y="72" width="1056" height="486" rx="34" fill="#ffffff" opacity="0.08" stroke="#ffffff" stroke-opacity="0.18"/>
  </g>

  <g transform="translate(118 116)">
    <rect x="0" y="0" width="78" height="78" rx="22" fill="url(#brand)"/>
    <text x="26" y="53" font-family="Inter, Arial, sans-serif" font-size="38" font-weight="900" fill="#ffffff">M</text>
    <text x="100" y="51" font-family="Inter, Arial, sans-serif" font-size="34" font-weight="850" fill="#ffffff">MDCAT LMS</text>

    <rect x="0" y="116" width="288" height="42" rx="21" fill="#1db884" opacity="0.18" stroke="#2dd99b" stroke-opacity="0.55"/>
    <text x="24" y="144" font-family="Inter, Arial, sans-serif" font-size="20" font-weight="800" fill="#c7fff0">MDCAT 2026 Batch Now Open</text>

    <text x="0" y="228" font-family="Inter, Arial, sans-serif" font-size="58" font-weight="900" fill="#ffffff">Faster, Smarter</text>
    <text x="0" y="294" font-family="Inter, Arial, sans-serif" font-size="58" font-weight="900" fill="#ffffff">MDCAT Preparation</text>
    <text x="0" y="350" font-family="Inter, Arial, sans-serif" font-size="28" font-weight="650" fill="#dbeafe">Chapter based MCQs, courses, live classes, and performance analytics.</text>

    <g transform="translate(0 402)">
      <rect x="0" y="0" width="210" height="58" rx="17" fill="url(#accent)"/>
      <text x="28" y="38" font-family="Inter, Arial, sans-serif" font-size="20" font-weight="850" fill="#ffffff">Join Now</text>

      <rect x="236" y="0" width="278" height="58" rx="17" fill="#ffffff" opacity="0.11" stroke="#ffffff" stroke-opacity="0.18"/>
      <text x="264" y="38" font-family="Inter, Arial, sans-serif" font-size="20" font-weight="800" fill="#ffffff">mdcat-lms.vercel.app</text>
    </g>
  </g>

  <g transform="translate(800 170)">
    <rect x="0" y="0" width="252" height="72" rx="22" fill="#ffffff" opacity="0.12"/>
    <text x="26" y="31" font-family="Inter, Arial, sans-serif" font-size="16" font-weight="800" fill="#b8fff0">MCQ Bank</text>
    <text x="26" y="56" font-family="Inter, Arial, sans-serif" font-size="20" font-weight="900" fill="#ffffff">Practice by chapter</text>

    <rect x="-34" y="104" width="292" height="72" rx="22" fill="#ffffff" opacity="0.12"/>
    <text x="-8" y="135" font-family="Inter, Arial, sans-serif" font-size="16" font-weight="800" fill="#d8ccff">Analytics</text>
    <text x="-8" y="160" font-family="Inter, Arial, sans-serif" font-size="20" font-weight="900" fill="#ffffff">Track performance</text>

    <rect x="22" y="208" width="244" height="72" rx="22" fill="#ffffff" opacity="0.12"/>
    <text x="48" y="239" font-family="Inter, Arial, sans-serif" font-size="16" font-weight="800" fill="#ffe6a8">Subjects</text>
    <text x="48" y="264" font-family="Inter, Arial, sans-serif" font-size="20" font-weight="900" fill="#ffffff">Bio, Chem, Physics</text>
  </g>
</svg>
